{
  "asset": {
    "generator": "Khronos glTF Blender I/O v4.1.62",
    "version": "2.0"
  },
  "scene": 0,
  "scenes": [
    {
      "name": "Scene",
      "nodes": [
        0,
        1,
        2,
        3,
        4,
        5,
        6
      ]
    }
  ],
  "nodes": [
    {
      "mesh": 0,
      "name": "othonna_cerarioides_a",
      "translation": [
        1.5,
        0,
        -0.6000000238418579
      ]
    },
    {
      "mesh": 1,
      "name": "othonna_cerarioides_b",
      "translation": [
        0,
        0,
        -0.6000000238418579
      ]
    },
    {
      "mesh": 2,
      "name": "othonna_cerarioides_c",
      "translation": [
        -1.5,
        0,
        -0.6000000238418579
      ]
    },
    {
      "mesh": 3,
      "name": "othonna_cerarioides_d",
      "translation": [
        1.5,
        0,
        0.3999999761581421
      ]
    },
    {
      "mesh": 4,
      "name": "othonna_cerarioides_e",
      "translation": [
        0.5,
        0,
        0.3999999761581421
      ]
    },
    {
      "mesh": 5,
      "name": "othonna_cerarioides_f",
      "translation": [
        -0.5,
        0,
        0.3999999761581421
      ]
    },
    {
      "mesh": 6,
      "name": "othonna_cerarioides_g",
      "translation": [
        -1.5,
        0,
        0.3999999761581421
      ]
    }
  ],
  "materials": [
    {
      "doubleSided": true,
      "name": "othonna_cerarioides",
      "normalTexture": {
        "index": 0
      },
      "pbrMetallicRoughness": {
        "baseColorTexture": {
          "index": 1
        },
        "metallicRoughnessTexture": {
          "index": 2
        }
      }
    },
    {
      "alphaCutoff": 0.5,
      "alphaMode": "MASK",
      "doubleSided": true,
      "name": "othonna_cerarioides_leaves",
      "normalTexture": {
        "index": 3
      },
      "pbrMetallicRoughness": {
        "baseColorTexture": {
          "index": 4
        },
        "metallicFactor": 0,
        "metallicRoughnessTexture": {
          "index": 5
        }
      }
    }
  ],
  "meshes": [
    {
      "name": "Plane.120",
      "primitives": [
        {
          "attributes": {
            "POSITION": 0,
            "NORMAL": 1,
            "TEXCOORD_0": 2
          },
          "indices": 3,
          "material": 0
        },
        {
          "attributes": {
            "POSITION": 4,
            "NORMAL": 5,
            "TEXCOORD_0": 6
          },
          "indices": 7,
          "material": 1
        }
      ]
    },
    {
      "name": "Plane.058",
      "primitives": [
        {
          "attributes": {
            "POSITION": 8,
            "NORMAL": 9,
            "TEXCOORD_0": 10
          },
          "indices": 11,
          "material": 0
        },
        {
          "attributes": {
            "POSITION": 12,
            "NORMAL": 13,
            "TEXCOORD_0": 14
          },
          "indices": 15,
          "material": 1
        }
      ]
    },
    {
      "name": "Plane.136",
      "primitives": [
        {
          "attributes": {
            "POSITION": 16,
            "NORMAL": 17,
            "TEXCOORD_0": 18
          },
          "indices": 19,
          "material": 0
        },
        {
          "attributes": {
            "POSITION": 20,
            "NORMAL": 21,
            "TEXCOORD_0": 22
          },
          "indices": 23,
          "material": 1
        }
      ]
    },
    {
      "name": "Plane.143",
      "primitives": [
        {
          "attributes": {
            "POSITION": 24,
            "NORMAL": 25,
            "TEXCOORD_0": 26
          },
          "indices": 27,
          "material": 0
        },
        {
          "attributes": {
            "POSITION": 28,
            "NORMAL": 29,
            "TEXCOORD_0": 30
          },
          "indices": 31,
          "material": 1
        }
      ]
    },
    {
      "name": "Plane.040",
      "primitives": [
        {
          "attributes": {
            "POSITION": 32,
            "NORMAL": 33,
            "TEXCOORD_0": 34
          },
          "indices": 35,
          "material": 0
        },
        {
          "attributes": {
            "POSITION": 36,
            "NORMAL": 37,
            "TEXCOORD_0": 38
          },
          "indices": 39,
          "material": 1
        }
      ]
    },
    {
      "name": "Plane.165",
      "primitives": [
        {
          "attributes": {
            "POSITION": 40,
            "NORMAL": 41,
            "TEXCOORD_0": 42
          },
          "indices": 43,
          "material": 0
        },
        {
          "attributes": {
            "POSITION": 44,
            "NORMAL": 45,
            "TEXCOORD_0": 46
          },
          "indices": 47,
          "material": 1
        }
      ]
    },
    {
      "name": "Plane.050",
      "primitives": [
        {
          "attributes": {
            "POSITION": 48,
            "NORMAL": 49,
            "TEXCOORD_0": 50
          },
          "indices": 51,
          "material": 0
        },
        {
          "attributes": {
            "POSITION": 52,
            "NORMAL": 53,
            "TEXCOORD_0": 54
          },
          "indices": 55,
          "material": 1
        }
      ]
    }
  ],
  "textures": [
    {
      "sampler": 0,
      "source": 0
    },
    {
      "sampler": 0,
      "source": 1
    },
    {
      "sampler": 0,
      "source": 2
    },
    {
      "sampler": 0,
      "source": 0
    },
    {
      "sampler": 0,
      "source": 1
    },
    {
      "sampler": 0,
      "source": 3
    }
  ],
  "images": [
    {
      "mimeType": "image/jpeg",
      "name": "othonna_cerarioides_nor_gl",
      "uri": "textures/othonna_cerarioides_nor_gl_4k.jpg"
    },
    {
      "mimeType": "image/jpeg",
      "name": "othonna_cerarioides_diff-othonna_cerarioides_alpha",
      "uri": "textures/othonna_cerarioides_diff_4k.jpg"
    },
    {
      "mimeType": "image/jpeg",
      "name": "othonna_cerarioides_metal-othonna_cerarioides_rough",
      "uri": "textures/othonna_cerarioides_arm_4k.jpg"
    },
    {
      "mimeType": "image/jpeg",
      "name": "othonna_cerarioides_rough",
      "uri": "textures/othonna_cerarioides_arm_4k.jpg"
    }
  ],
  "accessors": [
    {
      "bufferView": 0,
      "componentType": 5126,
      "count": 18936,
      "max": [
        0.550645649433136,
        1.8637831211090088,
        0.39048877358436584
      ],
      "min": [
        -0.4265705347061157,
        -0.061036571860313416,
        -0.5094491243362427
      ],
      "type": "VEC3"
    },
    {
      "bufferView": 1,
      "componentType": 5126,
      "count": 18936,
      "type": "VEC3"
    },
    {
      "bufferView": 2,
      "componentType": 5126,
      "count": 18936,
      "type": "VEC2"
    },
    {
      "bufferView": 3,
      "componentType": 5123,
      "count": 60645,
      "type": "SCALAR"
    },
    {
      "bufferView": 4,
      "componentType": 5126,
      "count": 55278,
      "max": [
        0.6182321906089783,
        1.9085502624511719,
        0.45606905221939087
      ],
      "min": [
        -0.48100200295448303,
        0.018809255212545395,
        -0.5698402523994446
      ],
      "type": "VEC3"
    },
    {
      "bufferView": 5,
      "componentType": 5126,
      "count": 55278,
      "type": "VEC3"
    },
    {
      "bufferView": 6,
      "componentType": 5126,
      "count": 55278,
      "type": "VEC2"
    },
    {
      "bufferView": 7,
      "componentType": 5123,
      "count": 110556,
      "type": "SCALAR"
    },
    {
      "bufferView": 8,
      "componentType": 5126,
      "count": 10290,
      "max": [
        0.3404753506183624,
        1.6745835542678833,
        0.469904363155365
      ],
      "min": [
        -0.5797528624534607,
        -0.044192105531692505,
        -0.4427086114883423
      ],
      "type": "VEC3"
    },
    {
      "bufferView": 9,
      "componentType": 5126,
      "count": 10290,
      "type": "VEC3"
    },
    {
      "bufferView": 10,
      "componentType": 5126,
      "count": 10290,
      "type": "VEC2"
    },
    {
      "bufferView": 11,
      "componentType": 5123,
      "count": 33189,
      "type": "SCALAR"
    },
    {
      "bufferView": 12,
      "componentType": 5126,
      "count": 27168,
      "max": [
        0.4117777645587921,
        1.7215957641601562,
        0.541493833065033
      ],
      "min": [
        -0.5964980125427246,
        0.06161559373140335,
        -0.5133281946182251
      ],
      "type": "VEC3"
    },
    {
      "bufferView": 13,
      "componentType": 5126,
      "count": 27168,
      "type": "VEC3"
    },
    {
      "bufferView": 14,
      "componentType": 5126,
      "count": 27168,
      "type": "VEC2"
    },
    {
      "bufferView": 15,
      "componentType": 5123,
      "count": 54336,
      "type": "SCALAR"
    },
    {
      "bufferView": 16,
      "componentType": 5126,
      "count": 5061,
      "max": [
        0.31380021572113037,
        1.3714545965194702,
        0.34046047925949097
      ],
      "min": [
        -0.2795311212539673,
        -0.04130241274833679,
        -0.4897662401199341
      ],
      "type": "VEC3"
    },
    {
      "bufferView": 17,
      "componentType": 5126,
      "count": 5061,
      "type": "VEC3"
    },
    {
      "bufferView": 18,
      "componentType": 5126,
      "count": 5061,
      "type": "VEC2"
    },
    {
      "bufferView": 19,
      "componentType": 5123,
      "count": 16353,
      "type": "SCALAR"
    },
    {
      "bufferView": 20,
      "componentType": 5126,
      "count": 10560,
      "max": [
        0.36941733956336975,
        1.3939783573150635,
        0.40487104654312134
      ],
      "min": [
        -0.3508986234664917,
        0.04076048731803894,
        -0.5416913032531738
      ],
      "type": "VEC3"
    },
    {
      "bufferView": 21,
      "componentType": 5126,
      "count": 10560,
      "type": "VEC3"
    },
    {
      "bufferView": 22,
      "componentType": 5126,
      "count": 10560,
      "type": "VEC2"
    },
    {
      "bufferView": 23,
      "componentType": 5123,
      "count": 21120,
      "type": "SCALAR"
    },
    {
      "bufferView": 24,
      "componentType": 5126,
      "count": 3295,
      "max": [
        0.2933565080165863,
        1.059274673461914,
        0.16380076110363007
      ],
      "min": [
        -0.2256656289100647,
        -0.03467589616775513,
        -0.30405834317207336
      ],
      "type": "VEC3"
    },
    {
      "bufferView": 25,
      "componentType": 5126,
      "count": 3295,
      "type": "VEC3"
    },
    {
      "bufferView": 26,
      "componentType": 5126,
      "count": 3295,
      "type": "VEC2"
    },
    {
      "bufferView": 27,
      "componentType": 5123,
      "count": 10824,
      "type": "SCALAR"
    },
    {
      "bufferView": 28,
      "componentType": 5126,
      "count": 8568,
      "max": [
        0.3583087921142578,
        1.1174383163452148,
        0.22481560707092285
      ],
      "min": [
        -0.29681196808815,
        0.009706653654575348,
        -0.34227609634399414
      ],
      "type": "VEC3"
    },
    {
      "bufferView": 29,
      "componentType": 5126,
      "count": 8568,
      "type": "VEC3"
    },
    {
      "bufferView": 30,
      "componentType": 5126,
      "count": 8568,
      "type": "VEC2"
    },
    {
      "bufferView": 31,
      "componentType": 5123,
      "count": 17136,
      "type": "SCALAR"
    },
    {
      "bufferView": 32,
      "componentType": 5126,
      "count": 1555,
      "max": [
        0.27449831366539,
        0.9095751643180847,
        0.12698739767074585
      ],
      "min": [
        -0.17225968837738037,
        -0.029552482068538666,
        -0.1821655035018921
      ],
      "type": "VEC3"
    },
    {
      "bufferView": 33,
      "componentType": 5126,
      "count": 1555,
      "type": "VEC3"
    },
    {
      "bufferView": 34,
      "componentType": 5126,
      "count": 1555,
      "type": "VEC2"
    },
    {
      "bufferView": 35,
      "componentType": 5123,
      "count": 5142,
      "type": "SCALAR"
    },
    {
      "bufferView": 36,
      "componentType": 5126,
      "count": 3180,
      "max": [
        0.30886968970298767,
        0.9289720058441162,
        0.21690237522125244
      ],
      "min": [
        -0.249740868806839,
        0.005393210798501968,
        -0.24290817975997925
      ],
      "type": "VEC3"
    },
    {
      "bufferView": 37,
      "componentType": 5126,
      "count": 3180,
      "type": "VEC3"
    },
    {
      "bufferView": 38,
      "componentType": 5126,
      "count": 3180,
      "type": "VEC2"
    },
    {
      "bufferView": 39,
      "componentType": 5123,
      "count": 6360,
      "type": "SCALAR"
    },
    {
      "bufferView": 40,
      "componentType": 5126,
      "count": 1420,
      "max": [
        0.15312062203884125,
        0.6109079122543335,
        0.14707569777965546
      ],
      "min": [
        -0.12636873126029968,
        -0.030175112187862396,
        -0.17925876379013062
      ],
      "type": "VEC3"
    },
    {
      "bufferView": 41,
      "componentType": 5126,
      "count": 1420,
      "type": "VEC3"
    },
    {
      "bufferView": 42,
      "componentType": 5126,
      "count": 1420,
      "type": "VEC2"
    },
    {
      "bufferView": 43,
      "componentType": 5123,
      "count": 4650,
      "type": "SCALAR"
    },
    {
      "bufferView": 44,
      "componentType": 5126,
      "count": 2382,
      "max": [
        0.20084235072135925,
        0.6507088541984558,
        0.22906553745269775
      ],
      "min": [
        -0.1915498673915863,
        0.029028430581092834,
        -0.2273644208908081
      ],
      "type": "VEC3"
    },
    {
      "bufferView": 45,
      "componentType": 5126,
      "count": 2382,
      "type": "VEC3"
    },
    {
      "bufferView": 46,
      "componentType": 5126,
      "count": 2382,
      "type": "VEC2"
    },
    {
      "bufferView": 47,
      "componentType": 5123,
      "count": 4764,
      "type": "SCALAR"
    },
    {
      "bufferView": 48,
      "componentType": 5126,
      "count": 1512,
      "max": [
        0.2183745801448822,
        0.397504061460495,
        0.14680927991867065
      ],
      "min": [
        -0.21905355155467987,
        -0.03464626148343086,
        -0.1653212308883667
      ],
      "type": "VEC3"
    },
    {
      "bufferView": 49,
      "componentType": 5126,
      "count": 1512,
      "type": "VEC3"
    },
    {
      "bufferView": 50,
      "componentType": 5126,
      "count": 1512,
      "type": "VEC2"
    },
    {
      "bufferView": 51,
      "componentType": 5123,
      "count": 5028,
      "type": "SCALAR"
    },
    {
      "bufferView": 52,
      "componentType": 5126,
      "count": 2172,
      "max": [
        0.27842190861701965,
        0.42763349413871765,
        0.20272071659564972
      ],
      "min": [
        -0.21603986620903015,
        -0.03538679704070091,
        -0.23280614614486694
      ],
      "type": "VEC3"
    },
    {
      "bufferView": 53,
      "componentType": 5126,
      "count": 2172,
      "type": "VEC3"
    },
    {
      "bufferView": 54,
      "componentType": 5126,
      "count": 2172,
      "type": "VEC2"
    },
    {
      "bufferView": 55,
      "componentType": 5123,
      "count": 4344,
      "type": "SCALAR"
    }
  ],
  "bufferViews": [
    {
      "buffer": 0,
      "byteLength": 227232,
      "byteOffset": 0,
      "target": 34962
    },
    {
      "buffer": 0,
      "byteLength": 227232,
      "byteOffset": 227232,
      "target": 34962
    },
    {
      "buffer": 0,
      "byteLength": 151488,
      "byteOffset": 454464,
      "target": 34962
    },
    {
      "buffer": 0,
      "byteLength": 121290,
      "byteOffset": 605952,
      "target": 34963
    },
    {
      "buffer": 0,
      "byteLength": 663336,
      "byteOffset": 727244,
      "target": 34962
    },
    {
      "buffer": 0,
      "byteLength": 663336,
      "byteOffset": 1390580,
      "target": 34962
    },
    {
      "buffer": 0,
      "byteLength": 442224,
      "byteOffset": 2053916,
      "target": 34962
    },
    {
      "buffer": 0,
      "byteLength": 221112,
      "byteOffset": 2496140,
      "target": 34963
    },
    {
      "buffer": 0,
      "byteLength": 123480,
      "byteOffset": 2717252,
      "target": 34962
    },
    {
      "buffer": 0,
      "byteLength": 123480,
      "byteOffset": 2840732,
      "target": 34962
    },
    {
      "buffer": 0,
      "byteLength": 82320,
      "byteOffset": 2964212,
      "target": 34962
    },
    {
      "buffer": 0,
      "byteLength": 66378,
      "byteOffset": 3046532,
      "target": 34963
    },
    {
      "buffer": 0,
      "byteLength": 326016,
      "byteOffset": 3112912,
      "target": 34962
    },
    {
      "buffer": 0,
      "byteLength": 326016,
      "byteOffset": 3438928,
      "target": 34962
    },
    {
      "buffer": 0,
      "byteLength": 217344,
      "byteOffset": 3764944,
      "target": 34962
    },
    {
      "buffer": 0,
      "byteLength": 108672,
      "byteOffset": 3982288,
      "target": 34963
    },
    {
      "buffer": 0,
      "byteLength": 60732,
      "byteOffset": 4090960,
      "target": 34962
    },
    {
      "buffer": 0,
      "byteLength": 60732,
      "byteOffset": 4151692,
      "target": 34962
    },
    {
      "buffer": 0,
      "byteLength": 40488,
      "byteOffset": 4212424,
      "target": 34962
    },
    {
      "buffer": 0,
      "byteLength": 32706,
      "byteOffset": 4252912,
      "target": 34963
    },
    {
      "buffer": 0,
      "byteLength": 126720,
      "byteOffset": 4285620,
      "target": 34962
    },
    {
      "buffer": 0,
      "byteLength": 126720,
      "byteOffset": 4412340,
      "target": 34962
    },
    {
      "buffer": 0,
      "byteLength": 84480,
      "byteOffset": 4539060,
      "target": 34962
    },
    {
      "buffer": 0,
      "byteLength": 42240,
      "byteOffset": 4623540,
      "target": 34963
    },
    {
      "buffer": 0,
      "byteLength": 39540,
      "byteOffset": 4665780,
      "target": 34962
    },
    {
      "buffer": 0,
      "byteLength": 39540,
      "byteOffset": 4705320,
      "target": 34962
    },
    {
      "buffer": 0,
      "byteLength": 26360,
      "byteOffset": 4744860,
      "target": 34962
    },
    {
      "buffer": 0,
      "byteLength": 21648,
      "byteOffset": 4771220,
      "target": 34963
    },
    {
      "buffer": 0,
      "byteLength": 102816,
      "byteOffset": 4792868,
      "target": 34962
    },
    {
      "buffer": 0,
      "byteLength": 102816,
      "byteOffset": 4895684,
      "target": 34962
    },
    {
      "buffer": 0,
      "byteLength": 68544,
      "byteOffset": 4998500,
      "target": 34962
    },
    {
      "buffer": 0,
      "byteLength": 34272,
      "byteOffset": 5067044,
      "target": 34963
    },
    {
      "buffer": 0,
      "byteLength": 18660,
      "byteOffset": 5101316,
      "target": 34962
    },
    {
      "buffer": 0,
      "byteLength": 18660,
      "byteOffset": 5119976,
      "target": 34962
    },
    {
      "buffer": 0,
      "byteLength": 12440,
      "byteOffset": 5138636,
      "target": 34962
    },
    {
      "buffer": 0,
      "byteLength": 10284,
      "byteOffset": 5151076,
      "target": 34963
    },
    {
      "buffer": 0,
      "byteLength": 38160,
      "byteOffset": 5161360,
      "target": 34962
    },
    {
      "buffer": 0,
      "byteLength": 38160,
      "byteOffset": 5199520,
      "target": 34962
    },
    {
      "buffer": 0,
      "byteLength": 25440,
      "byteOffset": 5237680,
      "target": 34962
    },
    {
      "buffer": 0,
      "byteLength": 12720,
      "byteOffset": 5263120,
      "target": 34963
    },
    {
      "buffer": 0,
      "byteLength": 17040,
      "byteOffset": 5275840,
      "target": 34962
    },
    {
      "buffer": 0,
      "byteLength": 17040,
      "byteOffset": 5292880,
      "target": 34962
    },
    {
      "buffer": 0,
      "byteLength": 11360,
      "byteOffset": 5309920,
      "target": 34962
    },
    {
      "buffer": 0,
      "byteLength": 9300,
      "byteOffset": 5321280,
      "target": 34963
    },
    {
      "buffer": 0,
      "byteLength": 28584,
      "byteOffset": 5330580,
      "target": 34962
    },
    {
      "buffer": 0,
      "byteLength": 28584,
      "byteOffset": 5359164,
      "target": 34962
    },
    {
      "buffer": 0,
      "byteLength": 19056,
      "byteOffset": 5387748,
      "target": 34962
    },
    {
      "buffer": 0,
      "byteLength": 9528,
      "byteOffset": 5406804,
      "target": 34963
    },
    {
      "buffer": 0,
      "byteLength": 18144,
      "byteOffset": 5416332,
      "target": 34962
    },
    {
      "buffer": 0,
      "byteLength": 18144,
      "byteOffset": 5434476,
      "target": 34962
    },
    {
      "buffer": 0,
      "byteLength": 12096,
      "byteOffset": 5452620,
      "target": 34962
    },
    {
      "buffer": 0,
      "byteLength": 10056,
      "byteOffset": 5464716,
      "target": 34963
    },
    {
      "buffer": 0,
      "byteLength": 26064,
      "byteOffset": 5474772,
      "target": 34962
    },
    {
      "buffer": 0,
      "byteLength": 26064,
      "byteOffset": 5500836,
      "target": 34962
    },
    {
      "buffer": 0,
      "byteLength": 17376,
      "byteOffset": 5526900,
      "target": 34962
    },
    {
      "buffer": 0,
      "byteLength": 8688,
      "byteOffset": 5544276,
      "target": 34963
    }
  ],
  "samplers": [
    {
      "magFilter": 9729,
      "minFilter": 9987
    }
  ],
  "buffers": [
    {
      "byteLength": 5552964,
      "uri": "othonna_cerarioides.bin"
    }
  ]
}